<svg xmlns="http://www.w3.org/2000/svg" viewBox="0 0 359.31 359.21"><defs><style>.cls-1{fill:#1739a3;}.cls-2{fill:#ffc845;}</style></defs><title>it blue</title><g id="Layer_2" data-name="Layer 2"><g id="Layer_1-2" data-name="Layer 1"><path class="cls-1" d="M106.87,112.3,94.52,99.58a25.12,25.12,0,0,1-6.88,21.12l-84,81.55A65.9,65.9,0,0,0,18.82,227h0l87.62-85.08A20.92,20.92,0,0,0,106.87,112.3Z"/><path class="cls-1" d="M84.86,105.82c2.8-8.12-1.17-18.13-9.53-26L20.18,133.37A66.26,66.26,0,0,0,.62,190.06l80.66-78.33A16.94,16.94,0,0,0,84.86,105.82Z"/><path class="cls-1" d="M51.08,168.7,71.37,149l22.36,23a32.64,32.64,0,0,1,6.59,17.35A33.35,33.35,0,0,1,93.15,212h0Z"/><path class="cls-1" d="M46.75,215,26.45,234.7l22.36,23A32.64,32.64,0,0,0,66,264.83a33.35,33.35,0,0,0,22.86-6.51h0Z"/><path class="cls-1" d="M113.89,104.84,101.54,92.12a25.12,25.12,0,0,0,21.31-6.26l84-81.55a65.9,65.9,0,0,1,24.26,15.88h0l-87.62,85.08A20.92,20.92,0,0,1,113.89,104.84Z"/><path class="cls-1" d="M108.06,82.65c-8.2,2.56-18.09-1.7-25.71-10.29L137.49,18.8A66.26,66.26,0,0,1,194.74.92L114.08,79.25A16.94,16.94,0,0,1,108.06,82.65Z"/><path class="cls-1" d="M171.91,50.72l-20.3,19.71,22.36,23a32.64,32.64,0,0,0,17.14,7.1A33.35,33.35,0,0,0,214,94h0Z"/><path class="cls-1" d="M218.31,47.75,238.6,28l22.36,23a32.64,32.64,0,0,1,6.59,17.35,33.35,33.35,0,0,1-7.18,22.66h0Z"/><path class="cls-1" d="M244.84,254.38l12.35,12.72a25.12,25.12,0,0,0-21.31,6.26l-84,81.55A65.9,65.9,0,0,1,127.64,339h0l87.62-85.08A20.92,20.92,0,0,1,244.84,254.38Z"/><path class="cls-1" d="M250.67,276.57c8.2-2.56,18.09,1.7,25.71,10.29l-55.15,53.55A66.26,66.26,0,0,1,164,358.3L244.65,280A16.94,16.94,0,0,1,250.67,276.57Z"/><path class="cls-1" d="M186.82,308.49l20.3-19.71-22.36-23a32.64,32.64,0,0,0-17.14-7.1,33.35,33.35,0,0,0-22.86,6.51h0Z"/><path class="cls-1" d="M140.42,311.46l-20.3,19.71-22.36-23a32.64,32.64,0,0,1-6.59-17.35,33.35,33.35,0,0,1,7.18-22.66h0Z"/><path class="cls-1" d="M252.44,247.51l12.35,12.72a25.12,25.12,0,0,1,6.88-21.12l84-81.55a65.9,65.9,0,0,0-15.16-24.72h0l-87.62,85.08A20.92,20.92,0,0,0,252.44,247.51Z"/><path class="cls-1" d="M274.45,254c-2.8,8.12,1.17,18.13,9.53,26l55.15-53.55a66.26,66.26,0,0,0,19.56-56.7L278,248.08A16.94,16.94,0,0,0,274.45,254Z"/><path class="cls-1" d="M308.24,191.11l-20.3,19.71-22.36-23A32.64,32.64,0,0,1,259,170.45a33.35,33.35,0,0,1,7.18-22.66h0Z"/><path class="cls-1" d="M312.56,144.82l20.3-19.71-22.36-23A32.64,32.64,0,0,0,293.36,95a33.35,33.35,0,0,0-22.86,6.51h0Z"/><path class="cls-2" d="M211.5,193.08l1.39-1.36a16.66,16.66,0,0,0,.24-23.56l-2.38-2.43a185.83,185.83,0,0,1,4.07-19.24l-11.58,11.58h0l11.55-11.55a183.82,183.82,0,0,1-18.93,4l-4.09-4.17a16.66,16.66,0,0,0-23.56-.24l-1.16,1.13c-3.19.71-10.9,1.85-18-1.62,3.32,6.8,2.41,14.17,1.71,17.58l-4.35,4.26a16.66,16.66,0,0,0-.24,23.56l2.3,2.35A202,202,0,0,1,144,215L157,202.07l0,0L144.07,215a199.63,199.63,0,0,1,21.32-4.4l2.15,2.2a16.66,16.66,0,0,0,23.56.24l3.09-3c2.4-.62,11-2.42,18.85,1.41C209.42,204.07,210.81,196,211.5,193.08Z"/></g></g></svg>